<?xml version="1.0" encoding="UTF-8" standalone="no"?>
<!-- Created with Inkscape (http://www.inkscape.org/) -->

<svg
   xmlns:dc="http://purl.org/dc/elements/1.1/"
   xmlns:cc="http://creativecommons.org/ns#"
   xmlns:rdf="http://www.w3.org/1999/02/22-rdf-syntax-ns#"
   xmlns:svg="http://www.w3.org/2000/svg"
   xmlns="http://www.w3.org/2000/svg"
   xmlns:sodipodi="http://sodipodi.sourceforge.net/DTD/sodipodi-0.dtd"
   xmlns:inkscape="http://www.inkscape.org/namespaces/inkscape"
   width="100"
   height="100"
   viewBox="0 0 26.458333 26.458334"
   version="1.1"
   id="svg6703"
   inkscape:version="0.92.4 (5da689c313, 2019-01-14)"
   sodipodi:docname="unk.svg">
  <defs
     id="defs6697" />
  <sodipodi:namedview
     id="base"
     pagecolor="#ffffff"
     bordercolor="#666666"
     borderopacity="1.0"
     inkscape:pageopacity="0.0"
     inkscape:pageshadow="2"
     inkscape:zoom="5.6"
     inkscape:cx="61.587093"
     inkscape:cy="28.833589"
     inkscape:document-units="mm"
     inkscape:current-layer="text7252"
     showgrid="false"
     units="px"
     inkscape:window-width="1920"
     inkscape:window-height="1043"
     inkscape:window-x="1600"
     inkscape:window-y="18"
     inkscape:window-maximized="0" />
  <metadata
     id="metadata6700">
    <rdf:RDF>
      <cc:Work
         rdf:about="">
        <dc:format>image/svg+xml</dc:format>
        <dc:type
           rdf:resource="http://purl.org/dc/dcmitype/StillImage" />
        <dc:title></dc:title>
      </cc:Work>
    </rdf:RDF>
  </metadata>
  <g
     inkscape:label="Layer 1"
     inkscape:groupmode="layer"
     id="layer1"
     transform="translate(0,-270.54165)">
    <rect
       style="opacity:1;fill:#19314e;fill-opacity:1;stroke:#d8b791;stroke-width:1.32291663;stroke-linecap:round;stroke-miterlimit:4;stroke-dasharray:none;stroke-opacity:1"
       id="rect7248"
       width="23.973238"
       height="23.973238"
       x="1.2425483"
       y="271.78424"
       ry="5"
       rx="5" />
    <g
       aria-label="?"
       style="font-style:normal;font-weight:normal;font-size:21.19519424px;line-height:1.25;font-family:sans-serif;letter-spacing:0px;word-spacing:0px;fill:#000000;fill-opacity:1;stroke:none;stroke-width:0.26458332"
       id="text7252">
      <path
         d="m 17.807329,279.9875 q 0,0.97497 -0.402709,1.7592 -0.381514,0.78422 -0.932589,1.3141 -0.551075,0.50868 -1.123345,0.99617 -0.551075,0.4663 -0.953784,1.08096 -0.381513,0.59346 -0.381513,1.27171 v 0.99617 h -1.907568 v -1.16573 q 0,-0.78422 0.381514,-1.48367 0.402709,-0.69944 0.953784,-1.20812 0.57227,-0.50869 1.123345,-1.01737 0.551075,-0.50869 0.932588,-1.14454 0.402709,-0.65705 0.402709,-1.39888 0,-1.08096 -0.741832,-1.73801 -0.741831,-0.67825 -1.971153,-0.67825 -1.547249,0 -2.140714,0.86901 -0.593466,0.869 -0.593466,2.43744 H 8.6510047 q 0,-2.43744 1.1657357,-3.68796 1.1869306,-1.27171 3.4760116,-1.27171 2.055934,0 3.285255,1.10215 1.229322,1.10215 1.229322,2.96733 z m -3.79394,9.43186 v 2.2043 h -1.907568 v -2.2043 z"
         style="font-style:normal;font-variant:normal;font-weight:normal;font-stretch:normal;font-family:FreeSans;-inkscape-font-specification:FreeSans;fill:#ffffff;fill-opacity:1;stroke-width:0.26458332"
         id="path7273" />
    </g>
  </g>
</svg>
